<svg xmlns="http://www.w3.org/2000/svg" viewBox="0 0 720 280" font-family="sans-serif">
<rect width="720" height="280" fill="#0b0e14"/>
<text x="40" y="22" fill="#e6e9ef" font-size="14">Phase 3 — voluntary Guild adoption over time (free-choice agents)</text>
<line x1="40" y1="240" x2="680" y2="240" stroke="#28303f"/><text x="34" y="243" font-size="10" fill="#8a93a6" text-anchor="end">0%</text><line x1="40" y1="190.0" x2="680" y2="190.0" stroke="#28303f"/><text x="34" y="193.0" font-size="10" fill="#8a93a6" text-anchor="end">25%</text><line x1="40" y1="140.0" x2="680" y2="140.0" stroke="#28303f"/><text x="34" y="143.0" font-size="10" fill="#8a93a6" text-anchor="end">50%</text><line x1="40" y1="90.0" x2="680" y2="90.0" stroke="#28303f"/><text x="34" y="93.0" font-size="10" fill="#8a93a6" text-anchor="end">75%</text><line x1="40" y1="40.0" x2="680" y2="40.0" stroke="#28303f"/><text x="34" y="43.0" font-size="10" fill="#8a93a6" text-anchor="end">100%</text>
<polyline fill="none" stroke="#34d399" stroke-width="2.5" points="40.0,40.0 62.1,240.0 84.1,180.0 106.2,160.0 128.3,220.0 150.3,140.0 172.4,180.0 194.5,140.0 216.6,180.0 238.6,180.0 260.7,160.0 282.8,120.0 304.8,140.0 326.9,120.0 349.0,120.0 371.0,120.0 393.1,120.0 415.2,100.0 437.2,120.0 459.3,100.0 481.4,100.0 503.4,80.0 525.5,80.0 547.6,100.0 569.7,100.0 591.7,80.0 613.8,80.0 635.9,80.0 657.9,80.0 680.0,80.0"/>
<text x="680" y="268" fill="#8a93a6" font-size="10" text-anchor="end">rounds →</text>
<text x="40" y="268" fill="#8a93a6" font-size="10">Env A util 0.124 · Env B util 0.768</text>
</svg>